<?xml version="1.0" encoding="utf-8"?>
<svg width="1200pt" height="1200pt" version="1.1" viewBox="0 0 1200 1200" xmlns="http://www.w3.org/2000/svg">
  <path d="m960.61 60h-480.61c-1.1758 0-2.3281 0.17969-3.4922 0.3125-0.40625 0.046875-0.81641 0.046875-1.2227 0.10938-2.4492 0.38281-4.8125 1.1172-7.0781 2.0898-0.50391 0.21484-0.96094 0.45703-1.4531 0.69531-2.3047 1.1406-4.5234 2.4727-6.4922 4.1875l-240.61 210c-1.4766 1.2852-2.7461 2.7227-3.9102 4.2344-0.32422 0.40625-0.61328 0.83984-0.91016 1.2617-0.875 1.2617-1.6445 2.5664-2.3164 3.9375-0.17969 0.37109-0.39453 0.71875-0.55078 1.0938-0.75781 1.7148-1.3438 3.5039-1.7656 5.3164-0.097656 0.40625-0.14453 0.82812-0.21484 1.2461-0.28906 1.5234-0.45703 3.0586-0.50391 4.6094 0 0.30078-0.097656 0.58984-0.097656 0.89844v810c0 16.57 13.43 30 30 30h721.22c16.57 0 30-13.43 30-30v-1020c0.011719-16.562-13.418-29.992-29.988-29.992zm-570.95 148.67 60.336-52.668v114h-130.61zm540.95 871.33h-661.23v-750h210.61c16.57 0 30-13.43 30-30v-180h420.61z" style="fill: rgb(219, 219, 218);"/>
  <path d="m484.54 518.36-124.37 237.64h64.559l12.672-28.117h103.37l13.07 28.117h64.957l-124.75-237.64zm38.809 169.12h-68.914l3.5625-6.3359 29.305-62.184h3.168l29.305 62.184z" style="fill: rgb(219, 219, 218);"/>
  <path d="m739.25 706.88v49.117h57.434v-49.117h30.492v-49.105h-30.492l0.39453-139.41h-40.789l-138.62 148.92v39.602zm-45.945-55.438s6.3359-4.3555 9.8984-7.9219l36.035-39.996v54.266h-45.949l0.003906-6.3477z" style="fill: rgb(219, 219, 218);"/>
</svg>