<?xml version="1.0" encoding="utf-8"?>
<svg version="1.0" width="512.000000pt" height="512.000000pt" viewBox="0 0 512.000000 512.000000" preserveAspectRatio="xMidYMid meet" xmlns="http://www.w3.org/2000/svg">
  <path d="M 62.2 1.1 C 33.9 5.9 10.3 27.5 2.3 56 C 0.6 62.2 0.5 71.8 0.5 256 C 0.5 440.2 0.6 449.8 2.3 456 C 9.6 482.1 29.9 502.4 56 509.7 C 62.2 511.4 71.8 511.5 256 511.5 C 440.2 511.5 449.8 511.4 456 509.7 C 482.1 502.4 502.4 482.1 509.7 456 C 511.4 449.8 511.5 440.2 511.5 256 C 511.5 71.8 511.4 62.2 509.7 56 C 502.4 30.2 482.6 10.2 456.5 2.3 C 450.8 0.6 440.3 0.5 259 0.4 C 151.6 0.3 65.2 0.6 62.2 1.1 Z M 453 23.7 C 469.8 29.4 483.1 42.9 488.3 59.5 L 490.5 66.5 L 490.5 256 L 490.5 445.5 L 488.3 452.5 C 484 466.2 473.6 478.6 461.5 484.6 C 447.8 491.3 459.8 491 255.4 491 C 74.3 491 70.2 491 62.6 489 C 58.3 487.9 52.3 485.7 49.1 484 C 37.9 478 27.8 465.5 23.7 452.5 L 21.5 445.5 L 21.5 256 L 21.5 66.5 L 23.7 59.5 C 30.1 39.3 47.3 24.7 68 22 C 71 21.6 157.4 21.3 260 21.4 L 446.5 21.5 L 453 23.7 Z" style="fill: rgb(219, 219, 218);" stroke="none"/>
  <path d="M 103 96.7 C 98.1 98.5 95 105 96.5 110.2 C 96.9 111.4 110.3 125.7 126.3 141.7 L 155.5 171 L 139.8 171 C 124.5 171 124.1 171.1 121.2 173.5 C 117.4 176.7 116.4 180.7 118.4 185.3 C 121.1 191.9 122.3 192.1 156 191.8 L 186 191.5 L 188.7 188.7 L 191.5 186 L 191.8 155.7 C 192 127.1 191.9 125.3 190.1 122.3 C 186.5 116.6 177.9 116.2 173.3 121.5 C 171.1 124 171 125 171 139.8 L 171 155.5 L 142.8 127.4 C 127.2 111.9 113.4 98.5 112 97.6 C 109.6 96 105.9 95.6 103 96.7 Z" style="fill: rgb(219, 219, 218);" stroke="none"/>
  <path d="M 400 97.6 C 398.6 98.5 384.8 111.9 369.3 127.4 L 341 155.5 L 341 139.8 C 341 125 340.9 124 338.8 121.5 C 334.1 116.2 325.5 116.6 321.9 122.3 C 320.1 125.3 320 127.1 320.2 155.7 L 320.5 186 L 323.3 188.7 L 326 191.5 L 356 191.8 C 389.7 192.1 390.9 191.9 393.6 185.3 C 395.6 180.7 394.6 176.7 390.8 173.5 C 387.9 171.1 387.5 171 372.2 171 L 356.6 171 L 385.7 141.7 C 401.7 125.7 415.1 111.4 415.5 110.2 C 416.6 106.6 415.2 101.6 412.6 99.1 C 409.4 96.1 403.3 95.3 400 97.6 Z" style="fill: rgb(219, 219, 218);" stroke="none"/>
  <path d="M 122.4 321.9 C 118.8 324.1 116.6 329.4 117.6 333.4 C 117.9 334.8 119.6 337.1 121.2 338.5 C 124.1 340.9 124.6 341 139.8 341 L 155.5 341 L 127.4 369.2 C 111.9 384.8 98.5 398.6 97.6 400 C 92.5 407.8 100.9 418.3 110.2 415.5 C 111.4 415.1 125.7 401.7 141.8 385.7 L 171 356.6 L 171 372.2 C 171 387.5 171.1 387.9 173.5 390.8 C 176.7 394.6 180.7 395.6 185.3 393.6 C 191.9 390.9 192.1 389.7 191.8 356 L 191.5 326 L 188.7 323.3 L 186 320.5 L 155.7 320.2 C 127.3 320 125.3 320.1 122.4 321.9 Z" style="fill: rgb(219, 219, 218);" stroke="none"/>
  <path d="M 326.5 320.9 C 325.4 321.4 323.6 322.8 322.5 324 C 320.6 326.1 320.5 327.8 320.2 356.1 C 319.9 389.6 320.1 390.9 326.7 393.6 C 331.3 395.6 335.3 394.6 338.5 390.8 C 340.9 387.9 341 387.5 341 372.2 L 341 356.6 L 370.3 385.7 C 389.2 404.6 400.5 415.1 402.3 415.5 C 410.4 417.6 417.9 409.8 415.5 401.8 C 415.1 400.6 401.7 386.3 385.7 370.2 L 356.6 341 L 372.2 341 C 386.1 341 388 340.8 390.2 339 C 396.2 334.3 395.9 325.7 389.6 321.9 C 386.7 320.1 384.4 320 357.5 320.1 C 341.6 320.1 327.6 320.5 326.5 320.9 Z" style="fill: rgb(219, 219, 218);" stroke="none"/>
</svg>