<?xml version="1.0" encoding="utf-8"?>
<svg version="1.1" id="Calque_1" x="0px" y="0px" viewBox="0 0 108 88" style="enable-background:new 0 0 108 88;" xmlns="http://www.w3.org/2000/svg">
  <style type="text/css">
	.st0{fill:none;stroke:#002999;stroke-width:4.8427;stroke-linecap:round;stroke-linejoin:round;stroke-miterlimit:10;}
</style>
  <g>
    <g>
      <path class="st0" d="M46.9,69.9c-0.8,0.6-1.6,1.2-2.4,1.9c-2.8,2.3-5.4,5-7.8,8c-6.3,8,16.6-1.2,20.3-7.4c0.3,0,0.7,0,1,0 c9.5,0,17.9-5.2,22.7-13c1.5-2.5,2.6-5.2,3.4-8.1c0.6-2.3,0.9-4.7,0.9-7.2c0-2.7-0.4-7.7-3-13.1c-3.8-7.6,20.2-13.2,20.2-13.2 L88,20.6c-0.4,0-0.8-0.1-1.3-0.1c-2.7-0.3-5.3-1.2-7.8-2.5c-1.3-0.7-3-1.3-5.1-1.7c-2-0.3-8.7-1.5-12.7,2.8 c-3,3.2-2.9,7.6-2.9,8.5c0,1.9,0.5,3.3,0.9,4.3c-1.2-1.8-2.4-3.6-3.8-5.2c-2.4-3-5.1-5.7-8-8c-0.2-0.1-0.3-0.3-0.5-0.4 c-0.6-0.5-1.3-1-2-1.5c-8.7-6.3-19.1-9.9-30.5-9.9c-3,0-5.9,0.4-8.7,1.2c3.1,11.9,10,22.5,19.4,30c2,1.6,4.1,3,6.1,4.2" style="stroke: rgb(219, 219, 218);"/>
    </g>
  </g>
</svg>