<svg xmlns="http://www.w3.org/2000/svg" xmlns:xlink="http://www.w3.org/1999/xlink" version="1.1" x="0px" y="0px" viewBox="0 0 100 125" enable-background="new 0 0 100 100" xml:space="preserve"><g><path d="M80.051,5H40c-0.098,0-0.194,0.015-0.291,0.026c-0.034,0.004-0.068,0.004-0.102,0.009c-0.204,0.032-0.401,0.093-0.59,0.174   c-0.042,0.018-0.08,0.038-0.121,0.058c-0.192,0.095-0.377,0.206-0.541,0.349l-20.051,17.5c-0.123,0.107-0.229,0.227-0.326,0.353   c-0.027,0.034-0.051,0.07-0.076,0.105c-0.073,0.105-0.137,0.214-0.193,0.328c-0.015,0.031-0.033,0.06-0.046,0.091   c-0.063,0.143-0.112,0.292-0.147,0.443c-0.008,0.034-0.012,0.069-0.018,0.104c-0.024,0.127-0.038,0.255-0.042,0.384   c0,0.025-0.008,0.049-0.008,0.075v33.75c0,1.381,1.119,2.5,2.5,2.5s2.5-1.119,2.5-2.5V27.5H40c1.381,0,2.5-1.119,2.5-2.5V10h35.051   v80H34.975c-1.381,0-2.5,1.119-2.5,2.5s1.119,2.5,2.5,2.5h45.076c1.381,0,2.5-1.119,2.5-2.5v-85C82.551,6.119,81.432,5,80.051,5z    M26.616,22.5l5.856-5.111L37.5,13v9.5H26.616z"/><path d="M33.566,84.003h5.413L28.583,64.2h-0.792L17.427,84.003h5.38l1.056-2.343h8.614L33.566,84.003z M25.282,78.293l0.297-0.528   l2.442-5.182h0.264l2.442,5.182l0.297,0.528H25.282z"/><path d="M50.435,64.2L38.883,76.61v3.3h10.133v4.093h4.786V79.91h2.541v-4.092h-2.541L53.834,64.2H50.435z M49.016,75.818h-3.829   V75.29c0,0,0.528-0.363,0.825-0.66l3.003-3.333V75.818z"/></g><text x="0" y="115" fill="#000000" font-size="5px" font-weight="bold" font-family="'Helvetica Neue', Helvetica, Arial-Unicode, Arial, Sans-serif">Created by Tugrul Peker</text><text x="0" y="120" fill="#000000" font-size="5px" font-weight="bold" font-family="'Helvetica Neue', Helvetica, Arial-Unicode, Arial, Sans-serif">from the Noun Project</text></svg>